<?xml version="1.0" encoding="utf-8"?>
<!-- Generator: Adobe Illustrator 16.0.2, SVG Export Plug-In . SVG Version: 6.00 Build 0)  -->
<!DOCTYPE svg PUBLIC "-//W3C//DTD SVG 1.1//EN" "http://www.w3.org/Graphics/SVG/1.1/DTD/svg11.dtd">
<svg version="1.1" id="Layer_1" xmlns="http://www.w3.org/2000/svg" xmlns:xlink="http://www.w3.org/1999/xlink" x="0px" y="0px"
	 width="512px" height="512px" viewBox="0 0 512 512" enable-background="new 0 0 512 512" xml:space="preserve">
<path fill-rule="evenodd" clip-rule="evenodd" fill="#A02021" d="M405.021,61.695L256.404,9.279c-1.094-0.373-2.287-0.373-3.383,0
	L104.381,61.695c-2.014,0.721-3.381,2.636-3.381,4.774c0,53.061,14.048,114.377,38.515,168.234
	c19.843,43.688,55.548,101.996,112.862,131.511c0.746,0.372,1.541,0.571,2.336,0.571c0.797,0,1.592-0.199,2.314-0.571
	c57.338-29.515,93.018-87.823,112.885-131.511c24.467-53.857,38.49-115.173,38.49-168.234
	C408.402,64.331,407.061,62.416,405.021,61.695L405.021,61.695z"/>
<path fill-rule="evenodd" clip-rule="evenodd" fill="#FFFFFF" d="M387.541,77.434L254.713,30.613L121.861,77.434
	c1.839,50.152,15.938,103.562,36.477,148.716c20.663,45.527,52.241,92.074,96.375,117.784
	c44.111-25.71,75.689-72.257,96.377-117.784C371.604,180.996,385.725,127.586,387.541,77.434L387.541,77.434z"/>
<path fill-rule="evenodd" clip-rule="evenodd" fill="#FFFFFF" d="M246.807,238.906c0-13.726-10.766-24.716-24.043-25.859v-11.215
	l-5.496,2.736v8.701c-12.805,1.617-22.876,12.383-22.876,25.637v24.044c0,1.591,1.368,2.76,2.735,2.76h9.15
	c1.393,0,2.76-1.169,2.76-2.76c0-1.617-1.367-2.76-2.76-2.76h-6.391v-21.284c0-11.438,9.374-20.588,20.813-20.588
	c11.462,0,20.613,9.149,20.613,20.588v21.284h-5.719c-1.616,0-2.761,1.143-2.761,2.76c0,1.591,1.145,2.76,2.761,2.76h8.454
	c1.617,0,2.76-1.169,2.76-2.76V238.906z"/>
<path fill-rule="evenodd" clip-rule="evenodd" fill="#FFFFFF" d="M290.07,203.199v21.062v0.248
	c-4.574,0.896-8.029,5.024-8.029,9.822c0,5.743,4.6,10.294,10.07,10.294c5.744,0,10.094-4.551,10.094-10.294
	c0-4.352-2.76-8.007-6.887-9.374c0.248-0.225,0.248-0.448,0.248-0.696v-18.55L290.07,203.199z M287.311,234.331
	c0-2.512,2.064-4.575,4.801-4.575c2.535,0,4.822,2.063,4.822,4.575c0,2.761-2.287,4.799-4.822,4.799
	C289.375,239.13,287.311,237.092,287.311,234.331L287.311,234.331z"/>
<text transform="matrix(1 0 0 1 57.0757 441.2012)"><tspan x="0" y="0" fill="#333333" font-family="'Dosis-SemiBold'" font-size="72">HOPITAL F.S.I.</tspan><tspan x="128.757" y="57.6" fill="#333333" font-family="'Dosis-SemiBold'" font-size="48">MARSA</tspan></text>
<radialGradient id="XMLID_4_" cx="116" cy="638.4072" r="0" gradientUnits="userSpaceOnUse">
	<stop  offset="0" style="stop-color:#C0BEBF"/>
	<stop  offset="1" style="stop-color:#4A4A4A"/>
</radialGradient>
<path id="XMLID_2_" fill="url(#XMLID_4_)" d="M116,638.407"/>
<radialGradient id="XMLID_5_" cx="116" cy="-161.5928" r="0" gradientUnits="userSpaceOnUse">
	<stop  offset="0" style="stop-color:#C0BEBF"/>
	<stop  offset="1" style="stop-color:#4A4A4A"/>
</radialGradient>
<path id="XMLID_1_" fill="url(#XMLID_5_)" d="M116-161.593"/>
<g id="XMLID_36_">
	<g id="XMLID_28_">
		<path id="XMLID_32_" fill="#A02021" d="M253.727,139.443h-98.361c0,0-0.14,6.884,13.208,6.744
			c13.349-0.14,28.244,10.68,39.063,19.813c10.82,9.134,21.921,15.878,46.09,15.878c24.168,0,35.27-6.744,46.09-15.878
			c10.818-9.133,25.714-19.953,39.063-19.813c13.349,0.14,13.208-6.744,13.208-6.744H253.727z"/>
		<path id="XMLID_31_" fill="#A02021" d="M253.727,281.643h48.899c0,0,0.068-2.207-6.566-2.163
			c-6.638,0.045-14.042-3.425-19.422-6.355c-5.377-2.93-10.896-5.094-22.911-5.094c-12.015,0-17.535,2.164-22.914,5.094
			c-5.379,2.931-12.784,6.4-19.42,6.355c-6.636-0.044-6.566,2.163-6.566,2.163H253.727z"/>
		<rect id="XMLID_29_" x="249.504" y="181.804" fill="#A02021" width="8.444" height="87.754"/>
	</g>
	<path id="XMLID_34_" fill="#35A6B8" d="M256.443,79.958c-6.838,4.59-8.899,12.74,0,22.389c8.898,9.649,11.521-1.499,12.927-5.621
		c1.404-4.122,3.935-9.368,0-13.677c-3.935-4.31-5.527-2.436-6.556-8.244c-1.032-5.808-7.026-18.36-23.703-17.424
		c-17.496,0.983-28.851,14.239-27.915,28.853c0.938,14.614,4.207,26.979,30.113,36.16c25.908,9.18,36.772,11.615,39.772,22.482
		c2.997,10.867-21.31,30.164-21.31,30.164v16.674c0,0,28.615-5.808,40.419-31.85c11.802-26.042-12.366-37.846-22.296-40.094
		s-39.344-3.748-49.835-16.861c-10.493-13.115-9.158-33.988,10.678-35.972C255.599,65.25,256.443,79.958,256.443,79.958z"/>
	<path id="XMLID_35_" fill="#35A6B8" d="M247.638,182.627c0,0-18.362-0.263-22.202,16.356c-3.841,16.619,9.085,30.202,31.474,30.389
		c22.39,0.187,33.941-12.051,34.784-22.542c0.843-10.491-11.925-14.553-20.451-13.522c-8.524,1.03-11.826,3.465-11.826,3.465
		l0.071,7.4c0,0,16.253-3.09,14.004,6.933c-2.249,10.022-22.015,7.868-26.886,5.996c-4.87-1.875-11.766-9.932-6.745-18.118
		c2.622-4.274,7.587-5.395,7.587-5.395L247.638,182.627z"/>
	<path id="XMLID_33_" fill="#35A6B8" d="M247.918,200.333c0,0-2.201,0.655-4.801,2.272c-2.599,1.615-3.864,4.214-3.864,4.214
		s0.071,2.108,1.475,3.936c1.406,1.826,2.858,3.161,2.858,3.161s2.622-1.476,3.675-2.178
		C248.318,211.034,247.918,200.333,247.918,200.333z"/>
	<path id="XMLID_40_" fill="#35A6B8" d="M269.078,233.138c-7.301,0.882-10.13,2.969-10.13,2.969l0.06,6.338
		c0,0,13.921-2.647,11.995,5.936c-1.925,8.586-18.854,6.741-23.027,5.136c-4.172-1.604-10.075-8.506-5.775-15.517
		c2.244-3.661,6.499-4.622,6.499-4.622l0.056-3.321c-3.887-0.68-7.369-1.826-10.403-3.353c-3.638,1.976-7.144,5.387-8.508,11.295
		c-3.29,14.233,7.782,25.867,26.958,26.027c19.176,0.16,29.069-10.322,29.792-19.307
		C287.314,235.734,276.379,232.256,269.078,233.138z"/>
	<path id="XMLID_41_" fill="#A02021" d="M295.459,126.807c3.274,2.607,6.229,5.951,8.1,10.106h48.528
		C352.087,136.913,326.238,130.386,295.459,126.807z"/>
	<path id="XMLID_42_" fill="#A02021" d="M243.226,124.63c-41.669,1.197-87.86,12.283-87.86,12.283h114.8
		C265.273,132.541,256.812,129.597,243.226,124.63z"/>
</g>
</svg>
