<?xml version="1.0" encoding="utf-8"?>
<!-- Generator: Adobe Illustrator 16.0.2, SVG Export Plug-In . SVG Version: 6.00 Build 0)  -->
<!DOCTYPE svg PUBLIC "-//W3C//DTD SVG 1.1//EN" "http://www.w3.org/Graphics/SVG/1.1/DTD/svg11.dtd">
<svg version="1.1" id="Layer_1" xmlns="http://www.w3.org/2000/svg" xmlns:xlink="http://www.w3.org/1999/xlink" x="0px" y="0px"
	 width="689.3px" height="175.19px" viewBox="0 0 689.3 175.19" enable-background="new 0 0 689.3 175.19" xml:space="preserve">
<g>
	<g>
		<rect x="-0.228" y="-1.36" fill="#DA4D4E" width="690.528" height="178.55"/>
	</g>
	
		<radialGradient id="SVGID_1_" cx="152.729" cy="89.3843" r="123.971" gradientTransform="matrix(1.0018 0 0 1.0192 -1.0864 -3.1854)" gradientUnits="userSpaceOnUse">
		<stop  offset="0.0443" style="stop-color:#FFFFFF"/>
		<stop  offset="1" style="stop-color:#FFFFFF;stop-opacity:0"/>
	</radialGradient>
	<path opacity="0.39" fill="url(#SVGID_1_)" d="M292.282,151.548l-12.712-27.702l-12.712-27.711l-12.713-27.701l-12.712-27.711
		l-12.712-27.701L222.117-1.36h-2.204l6.571,14.32l-23.682,11.241l-1.733,0.826L189.399-0.402l-0.2-0.428l1.112-0.53h-4.718
		L161.54,10.065l-0.421,0.194l-5.33-11.619h-2.204l5.53,12.057l0.19,0.428l-24.344,11.558l-1.072,0.509L122.841-0.891L122.62-1.36
		h-2.214l10.85,23.645l0.821,1.773l-25.005,11.874l-0.42,0.194l-11.36-24.767l-0.501-1.09l23.151-10.997l1.333-0.632h-4.738
		L96.213,7.344l-2.274,1.081L89.451-1.36h-2.204l4.688,10.223l0.19,0.417L67.131,21.164l-0.421,0.194L56.292-1.36h-2.214
		l10.619,23.156l0.2,0.418L39.893,34.097l-0.411,0.194L27.812,8.853l-0.2-0.417L48.238-1.36H43.49L27.18,6.386L26.77,6.59
		l-3.646-7.95H20.91l3.847,8.388l0.19,0.418L-0.048,19.319l-0.18,0.092v5.432L10.24,47.663l0.19,0.428l-10.659,5.065v2.242
		l10.438-4.953l1.072-0.509l11.05,24.083l0.812,1.773L-0.228,86.891v2.252L23.574,77.84l0.421-0.204l11.36,24.766l0.501,1.091
		l-23.672,11.251l-1.744,0.826L-0.228,92.313v4.831l8.655,18.864l0.2,0.418l-8.855,4.21v2.252l9.286-4.413l0.411-0.193l11.37,24.766
		l0.501,1.091L-0.228,154.38v2.243l21.999-10.447l0.411-0.193l11.681,25.439l0.19,0.417l-11.26,5.351h4.729l6.301-2.997l1.072-0.51
		l1.612,3.507h2.214l-1.813-3.944l-0.19-0.418l24.995-11.873l0.421-0.204l7.543,16.439h2.214l-7.753-16.877l-0.19-0.418
		l25.004-11.874l0.411-0.203l11.671,25.438l0.2,0.418l-7.403,3.517h4.739l3.095-1.468l0.411-0.193l0.761,1.661h2.214l-0.661-1.437
		l-0.501-1.091l23.682-11.241l1.743-0.825l6.702,14.594h2.204l-6.902-15.043l-0.19-0.418l24.343-11.558l1.072-0.509l11.05,24.083
		l0.812,1.773l-3.517,1.671h6.502l-0.121-0.265l-0.2-0.428l24.343-11.559l1.072-0.51l5.85,12.761h2.225l-6.061-13.198l-0.191-0.429
		l24.995-11.873l0.42-0.193l11.361,24.767l0.43,0.927h5.159l22.58-10.723l0.411-0.203l5.009,10.926h2.214l-5.209-11.363l-0.2-0.418
		l25.005-11.874l0.42-0.203l10.95,23.858h2.214L292.282,151.548z M277.335,123.786l-23.151,10.986l-2.264,1.08l-11.67-25.439
		l-0.2-0.417l24.343-11.568l1.082-0.51L277.335,123.786z M252.751,70.217l11.871,25.857l-24.343,11.568l-1.072,0.51l-11.06-24.094
		l-0.812-1.773l25.005-11.874L252.751,70.217z M74.986,116.499l0.821,1.773l-25.004,11.874l-0.421,0.192L38.711,104.9l-0.19-0.418
		l24.343-11.557l1.072-0.51L74.986,116.499z M53.537,64.938l-0.5-1.091l23.682-11.252l1.733-0.825l11.681,25.438l0.19,0.417
		L65.318,89.5l-0.41,0.204L53.537,64.938z M66.57,93.322l-0.821-1.773l25.004-11.874l0.421-0.204l11.671,25.438l0.19,0.428
		l-24.344,11.559l-1.072,0.51L66.57,93.322z M93.178,79.033l-0.19-0.418l24.995-11.873l0.421-0.204l11.67,25.438l0.19,0.428
		l-24.994,11.873l-0.421,0.194L93.178,79.033z M157.302,79.043l0.2,0.428l-25.004,11.874l-0.41,0.193L120.406,66.1l-0.19-0.417
		l25.004-11.874l0.411-0.204L157.302,79.043z M147.444,52.749l24.353-11.568l1.072-0.509l10.799,23.553l1.062,2.314l-23.672,11.241
		l-1.743,0.826l-11.671-25.439L147.444,52.749z M130.695,94.443l0.42-0.193l11.671,25.429l0.19,0.428l-24.994,11.873l-0.42,0.194
		l-11.671-25.429l-0.19-0.429L130.695,94.443z M133.129,93.812l-0.2-0.429l25.004-11.873l0.411-0.194l11.371,24.766l0.5,1.091
		l-23.682,11.241l-1.733,0.825L133.129,93.812z M160.658,81.541l-0.491-1.091l23.672-11.241l1.743-0.826l11.671,25.429l0.19,0.428
		l-25.004,11.874l-0.411,0.193L160.658,81.541z M187.396,67.516l24.343-11.557l1.072-0.51l11.671,25.428l0.19,0.429l-24.344,11.557
		l-1.072,0.51l-11.67-25.429L187.396,67.516z M197.874,96.278l0.421-0.194l11.67,25.438l0.19,0.418l-25.004,11.874l-0.411,0.203
		L173.07,108.58l-0.19-0.418L197.874,96.278z M200.298,95.646l-0.19-0.418l24.343-11.568l1.072-0.509l11.049,24.083l0.812,1.773
		L212.39,120.88l-0.42,0.204L200.298,95.646z M240.039,42.516l11.871,25.856l-25.004,11.874l-0.411,0.193l-11.67-25.429
		l-0.201-0.428l25.004-11.874L240.039,42.516z M225.593,15.63l1.733-0.825l11.871,25.856l-25.004,11.884l-0.411,0.194l-11.37-24.766
		l-0.501-1.091L225.593,15.63z M200.098,27.738l11.361,24.766l0.501,1.09l-24.344,11.568l-1.072,0.509l-10.799-23.553l-1.062-2.304
		l25.004-11.874L200.098,27.738z M186.964,0.23l0.421-0.193l11.671,25.438l0.19,0.418l-24.995,11.874l-0.42,0.204l-11.671-25.439
		l-0.191-0.428L186.964,0.23z M159.085,13.479l1.072-0.51l11.67,25.439l0.19,0.418l-24.343,11.567l-1.072,0.51l-11.67-25.438
		l-0.201-0.429L159.085,13.479z M132.508,26.097l0.411-0.193l11.671,25.438l0.2,0.418l-25.004,11.874l-0.411,0.204l-11.681-25.439
		l-0.19-0.428L132.508,26.097z M105.69,38.836l11.671,25.438l0.19,0.418L92.557,76.566l-0.421,0.204l-11.67-25.438l-0.19-0.418
		l24.995-11.883L105.69,38.836z M92.557,11.329l0.42-0.193l11.36,24.766l0.5,1.091L79.844,48.866l-0.42,0.193l-11.36-24.766
		l-0.5-1.09L92.557,11.329z M65.328,24.262l0.411-0.193l11.37,24.766l0.501,1.091L53.938,61.167l-1.743,0.826L40.524,36.564
		l-0.2-0.428L65.328,24.262z M12.244,47.224L0.573,21.786l-0.19-0.417L25.387,9.494l0.411-0.204l11.671,25.439l0.19,0.428
		L12.665,47.031L12.244,47.224z M13.907,50.843l-0.812-1.774L38.1,37.196l0.411-0.194l11.67,25.429l0.201,0.428L26.028,74.416
		l-1.072,0.51L13.907,50.843z M26.309,77.871l-0.501-1.091l24.344-11.567l1.072-0.51l11.37,24.766l0.501,1.09l-24.353,11.569
		l-1.072,0.509L26.309,77.871z M23.153,143.271l-11.36-24.765l-0.5-1.091l23.672-11.241l1.743-0.825l11.671,25.428l0.19,0.428
		l-24.995,11.874L23.153,143.271z M36.287,170.779l-0.421,0.194l-11.67-25.429l-0.19-0.428L49,133.243l0.42-0.193l11.671,25.439
		l0.19,0.417L36.287,170.779z M63.515,157.846l-0.421,0.193l-11.67-25.428l-0.19-0.428l25.004-11.874l0.411-0.194l11.671,25.438
		l0.2,0.418L63.515,157.846z M78.662,119.678l-0.201-0.428l24.354-11.559l1.072-0.51l11.671,25.43l0.19,0.428l-24.344,11.558
		l-1.072,0.51L78.662,119.678z M104.789,171.993l-1.743,0.825l-11.671-25.438l-0.2-0.417l24.353-11.568l1.072-0.51l10.799,23.554
		l1.062,2.303L104.789,171.993z M131.346,159.375l-1.072,0.51l-10.809-23.554l-1.052-2.304l24.995-11.874l0.42-0.203l11.361,24.767
		l0.501,1.091L131.346,159.375z M157.512,146.951l-11.37-24.766l-0.501-1.091l23.672-11.251l1.744-0.826l11.67,25.439l0.201,0.417
		l-25.004,11.873L157.512,146.951z M171.296,174.143l-1.071,0.51l-11.06-24.084l-0.812-1.773l25.004-11.873l0.411-0.194
		l11.67,25.429l0.201,0.43L171.296,174.143z M197.874,161.525l-0.42,0.194l-11.671-25.438l-0.19-0.418l24.995-11.874l0.42-0.203
		l11.671,25.438l0.19,0.428L197.874,161.525z M224.682,148.786l-11.671-25.438l-0.19-0.418l25.004-11.873l0.411-0.204l11.671,25.438
		l0.2,0.428l-25.005,11.874L224.682,148.786z M237.815,176.293l-0.421,0.192l-11.36-24.765l-0.501-1.091l25.004-11.874l0.411-0.192
		l11.37,24.766l0.501,1.09L237.815,176.293z M265.043,163.361l-0.411,0.192l-11.37-24.766l-0.501-1.091l23.151-10.997l2.274-1.07
		l11.861,25.857L265.043,163.361z M-0.228,169.414l3.566,7.776h2.214l-5.78-12.587V169.414z"/>
	<path opacity="0.71" fill="#CCCCCC" d="M191.893,10.83c-0.371,0.265-0.852,0.295-1.192,0.082l-4.628-2.976l4.619,21.668
		c0.09,0.438-0.181,0.907-0.651,1.131c-0.461,0.214-0.982,0.102-1.232-0.265L170.445,3.155l3.236,15.542
		c0.09,0.418-0.15,0.876-0.581,1.101c-0.01,0-0.01,0.01-0.02,0.01l-10.068,5.157l-12.251,6.309l14.145,36.293
		c0.17,0.438-0.07,0.968-0.551,1.223c0,0.01,0,0.01-0.01,0.01c-0.481,0.255-1.052,0.132-1.292-0.265l-33.54-54.22l7.033,24.246
		c0.11,0.377-0.07,0.806-0.441,1.071c-0.371,0.265-0.852,0.295-1.192,0.071l-4.628-2.965l4.619,21.667
		c0.09,0.438-0.181,0.907-0.652,1.131c-0.46,0.214-0.981,0.102-1.232-0.265l-18.363-27.314l3.236,15.542
		c0.09,0.429-0.16,0.887-0.601,1.111L95.853,59.587c-0.19,0.102-0.381,0.132-0.561,0.132l-0.401,0.204l14.146,36.292
		c0.04,0.092,0.05,0.194,0.05,0.296c0,0.357-0.221,0.724-0.601,0.927c-0.491,0.255-1.052,0.143-1.303-0.265l-33.529-54.21
		L80.675,67.2c0.111,0.377-0.07,0.816-0.44,1.081c-0.371,0.255-0.852,0.286-1.182,0.071l-4.638-2.966l4.618,21.658
		c0.09,0.438-0.18,0.917-0.641,1.131c-0.471,0.214-0.992,0.102-1.243-0.265L58.787,60.596l3.236,15.553
		c0.09,0.417-0.17,0.886-0.601,1.101L39.983,88.236c-0.211,0.112-0.431,0.143-0.641,0.123l-0.02,0.01l14.145,36.293
		c0.04,0.092,0.05,0.194,0.05,0.296c0,0.356-0.22,0.723-0.601,0.927c-0.491,0.255-1.052,0.143-1.302-0.265l-33.53-54.21
		l7.023,24.236c0.11,0.377-0.07,0.815-0.441,1.081c-0.371,0.255-0.842,0.285-1.182,0.071l-4.638-2.966l4.618,21.657
		c0.09,0.438-0.181,0.918-0.641,1.132c-0.471,0.214-0.992,0.103-1.232-0.266L3.218,89.042l3.236,15.553
		c0.09,0.418-0.15,0.886-0.591,1.101l-6.091,3.118v-2.038l4.538-2.324L0.123,84.333c-0.09-0.438,0.18-0.917,0.641-1.131
		c0.461-0.214,0.982-0.102,1.232,0.265l18.333,27.263l-3.998-18.793c-0.08-0.387,0.11-0.794,0.471-1.04
		c0.371-0.244,0.832-0.275,1.162-0.061l4.398,2.823l-8.395-28.955c-0.13-0.438,0.13-0.958,0.622-1.183
		c0.47-0.224,1.021-0.102,1.262,0.285l31.516,50.97L37.098,88.42c-0.17-0.438,0.07-0.968,0.541-1.223c0.01-0.01,0.01-0.01,0.02-0.01
		l22.099-11.384c0.02-0.01,0.05-0.021,0.07-0.03l-4.137-19.885c-0.1-0.438,0.181-0.917,0.642-1.131
		c0.46-0.214,0.981-0.102,1.232,0.265l18.333,27.263L71.89,63.491c-0.08-0.377,0.111-0.795,0.481-1.04
		c0.371-0.245,0.832-0.265,1.162-0.061l4.398,2.823l-8.395-28.955c-0.131-0.438,0.13-0.948,0.611-1.172
		c0.481-0.234,1.032-0.113,1.272,0.275l31.516,50.969L92.667,59.975c-0.17-0.438,0.06-0.969,0.541-1.223c0.01,0,0.01-0.01,0.02-0.01
		l22.1-11.384c0.13-0.061,0.26-0.102,0.39-0.122l-4.167-19.997c-0.091-0.438,0.19-0.907,0.651-1.121s0.982-0.102,1.232,0.265
		l18.332,27.263l-4.007-18.804c-0.08-0.377,0.11-0.795,0.481-1.04c0.371-0.244,0.832-0.265,1.162-0.051l4.398,2.813l-8.396-28.945
		c-0.13-0.448,0.131-0.958,0.611-1.182c0.481-0.235,1.022-0.112,1.272,0.285l31.516,50.969l-10.268-26.366
		c-0.17-0.438,0.06-0.969,0.541-1.224c0.01,0,0.01,0,0.01,0l1.522-0.785c0.07-0.061,0.15-0.112,0.23-0.153l11.34-5.81l9.016-4.637
		c0.07-0.041,0.14-0.071,0.22-0.092l0.12-0.061L167.38-1.36h2.554l17.622,26.203L183.548,6.04c-0.08-0.377,0.11-0.795,0.481-1.04
		s0.832-0.265,1.162-0.051l4.398,2.813l-2.645-9.122h2.164l3.226,11.119C192.444,10.137,192.264,10.575,191.893,10.83z"/>
	<path opacity="0.71" fill="#CCCCCC" d="M220.144,39.989c0,0.01,0,0.01-0.01,0.01c-0.48,0.255-1.052,0.132-1.292-0.265L193.426-1.36
		h2.464l18.703,30.25L204.326,2.523c-0.17-0.438,0.06-0.968,0.541-1.223c0.01,0,0.01,0,0.01,0l5.169-2.661h3.947l-7.443,3.833
		l14.145,36.292C220.865,39.204,220.625,39.744,220.144,39.989z"/>
</g>
<polyline opacity="0.25" fill="#FFFFFF" points="653.182,0.545 659.98,19.927 690.274,9.307 690.161,44.275 670.888,51.033 
	685.106,91.589 654,102.488 639.783,61.931 599.226,76.149 588.318,45.054 628.874,30.835 618.213,0.431 "/>
<polygon opacity="0.25" fill="#FFFFFF" points="598.885,120.501 610.183,116.541 614.144,127.838 622.808,124.8 618.847,113.502 
	630.145,109.542 627.107,100.878 615.809,104.839 611.847,93.541 603.184,96.579 607.145,107.877 595.847,111.838 "/>
<polygon opacity="0.25" fill="#FFFFFF" points="533.549,130.924 541.335,128.195 544.065,135.981 550.036,133.886 547.305,126.102 
	555.09,123.372 552.997,117.402 545.211,120.131 542.482,112.346 536.512,114.44 539.242,122.225 531.457,124.955 "/>
<polyline opacity="0.25" fill="#FFFFFF" points="579.443,0.305 582.673,9.536 593.305,5.809 596.168,13.959 585.537,17.694 
	589.262,28.327 581.113,31.179 577.377,20.548 566.745,24.283 563.891,16.123 574.524,12.398 570.789,1.767 574.993,0.29 "/>
<polygon opacity="0.39" fill="#FFFFFF" points="537.907,87.325 549.239,83.352 553.211,94.684 561.902,91.637 557.928,80.305 
	569.26,76.333 566.213,67.641 554.881,71.616 550.908,60.282 542.218,63.33 546.192,74.662 534.86,78.635 "/>
<polygon opacity="0.39" fill="#FFFFFF" points="512.125,26.728 518.686,24.427 520.987,30.987 526.018,29.224 523.717,22.662 
	530.279,20.363 528.515,15.332 521.954,17.631 519.653,11.071 514.622,12.835 516.922,19.396 510.362,21.697 "/>
</svg>
