<?xml version="1.0" encoding="utf-8"?>
<!-- Generator: Adobe Illustrator 16.0.2, SVG Export Plug-In . SVG Version: 6.00 Build 0)  -->
<!DOCTYPE svg PUBLIC "-//W3C//DTD SVG 1.1//EN" "http://www.w3.org/Graphics/SVG/1.1/DTD/svg11.dtd">
<svg version="1.1" id="Layer_1" xmlns="http://www.w3.org/2000/svg" xmlns:xlink="http://www.w3.org/1999/xlink" x="0px" y="0px"
	 width="512px" height="512px" viewBox="0 0 512 512" enable-background="new 0 0 512 512" xml:space="preserve">
<path fill="#DA4D4E" d="M405.021,61.695L256.404,9.279c-1.094-0.373-2.286-0.373-3.383,0l-148.64,52.416
	c-2.014,0.721-3.381,2.636-3.381,4.774c0,53.061,14.048,114.377,38.515,168.233c19.843,43.688,55.548,101.996,112.862,131.511
	c0.746,0.372,1.541,0.571,2.336,0.571c0.797,0,1.592-0.199,2.313-0.571c57.338-29.515,93.019-87.822,112.885-131.511
	c24.468-53.856,38.49-115.173,38.49-168.233C408.402,64.331,407.061,62.416,405.021,61.695L405.021,61.695z"/>
<path fill="#FFFFFF" d="M387.54,77.434L254.713,30.613L121.861,77.434c1.84,50.151,15.938,103.562,36.478,148.716
	c20.663,45.527,52.241,92.074,96.375,117.784c44.11-25.71,75.688-72.257,96.377-117.784
	C371.604,180.996,385.725,127.586,387.54,77.434L387.54,77.434z"/>
<path fill="#FFFFFF" d="M290.07,203.199v21.063v0.248c-4.573,0.896-8.028,5.023-8.028,9.821c0,5.743,4.6,10.294,10.069,10.294
	c5.744,0,10.094-4.551,10.094-10.294c0-4.352-2.76-8.007-6.887-9.374c0.248-0.225,0.248-0.447,0.248-0.695v-18.551L290.07,203.199z"
	/>
<text transform="matrix(1 0 0 1 57.0754 441.2019)" fill="#333333" font-family="'Dosis-SemiBold'" font-size="72">HOPITAL F.S.I.</text>
<text transform="matrix(1 0 0 1 185.8323 498.8015)" fill="#333333" font-family="'Dosis-SemiBold'" font-size="48">MARSA</text>
<radialGradient id="XMLID_4_" cx="107.6003" cy="-150.3079" r="0" gradientTransform="matrix(1 0 0 -1 8.3999 488.0991)" gradientUnits="userSpaceOnUse">
	<stop  offset="0" style="stop-color:#C0BEBF"/>
	<stop  offset="1" style="stop-color:#4A4A4A"/>
</radialGradient>
<path id="XMLID_2_" fill="url(#XMLID_4_)" d="M116,638.407"/>
<radialGradient id="XMLID_5_" cx="107.6003" cy="649.6921" r="0" gradientTransform="matrix(1 0 0 -1 8.3999 488.0991)" gradientUnits="userSpaceOnUse">
	<stop  offset="0" style="stop-color:#C0BEBF"/>
	<stop  offset="1" style="stop-color:#4A4A4A"/>
</radialGradient>
<path id="XMLID_1_" fill="url(#XMLID_5_)" d="M116-161.593"/>
<g id="XMLID_36_">
	<g id="XMLID_28_">
		<path id="XMLID_32_" fill="#DA4D4E" d="M253.727,139.443h-98.36c0,0-0.141,6.884,13.208,6.744
			c13.349-0.141,28.243,10.68,39.063,19.813c10.82,9.135,21.921,15.878,46.09,15.878c24.168,0,35.271-6.743,46.09-15.878
			c10.818-9.133,25.714-19.953,39.063-19.813c13.349,0.14,13.208-6.744,13.208-6.744H253.727z"/>
		<path id="XMLID_31_" fill="#DA4D4E" d="M253.727,281.643h48.899c0,0,0.067-2.207-6.566-2.163
			c-6.638,0.045-14.042-3.425-19.422-6.355c-5.377-2.93-10.896-5.094-22.911-5.094c-12.015,0-17.535,2.164-22.914,5.094
			c-5.379,2.932-12.784,6.4-19.42,6.355c-6.636-0.044-6.565,2.163-6.565,2.163H253.727z"/>
		<rect id="XMLID_29_" x="249.504" y="181.804" fill="#DA4D4E" width="8.443" height="87.754"/>
	</g>
	<path id="XMLID_34_" fill="#35A6B8" d="M256.443,79.958c-6.838,4.59-8.898,12.74,0,22.39c8.898,9.648,11.521-1.499,12.928-5.621
		c1.403-4.122,3.935-9.368,0-13.678c-3.936-4.31-5.527-2.436-6.557-8.243c-1.032-5.809-7.025-18.36-23.703-17.425
		c-17.496,0.983-28.851,14.239-27.915,28.854c0.938,14.614,4.207,26.979,30.113,36.16c25.908,9.18,36.772,11.615,39.772,22.481
		c2.997,10.867-21.311,30.164-21.311,30.164v16.674c0,0,28.615-5.808,40.419-31.85c11.802-26.042-12.365-37.846-22.296-40.094
		c-9.93-2.248-39.344-3.748-49.835-16.861c-10.493-13.115-9.158-33.988,10.678-35.972C255.599,65.25,256.443,79.958,256.443,79.958z
		"/>
	<path id="XMLID_35_" fill="#35A6B8" d="M247.638,182.627c0,0-18.362-0.263-22.202,16.356c-3.841,16.619,9.085,30.202,31.475,30.389
		c22.39,0.188,33.94-12.051,34.783-22.542c0.844-10.491-11.925-14.553-20.45-13.521c-8.524,1.029-11.826,3.465-11.826,3.465
		l0.07,7.399c0,0,16.254-3.09,14.005,6.934c-2.249,10.021-22.016,7.868-26.887,5.996c-4.87-1.875-11.766-9.933-6.745-18.118
		c2.622-4.274,7.588-5.396,7.588-5.396L247.638,182.627z"/>
	<path id="XMLID_33_" fill="#35A6B8" d="M247.918,200.333c0,0-2.201,0.655-4.801,2.272c-2.6,1.615-3.864,4.214-3.864,4.214
		s0.071,2.108,1.475,3.936c1.406,1.826,2.858,3.161,2.858,3.161s2.622-1.476,3.675-2.178
		C248.318,211.034,247.918,200.333,247.918,200.333z"/>
	<path id="XMLID_40_" fill="#35A6B8" d="M269.078,233.138c-7.302,0.882-10.131,2.969-10.131,2.969l0.061,6.338
		c0,0,13.921-2.647,11.995,5.936c-1.925,8.587-18.854,6.741-23.027,5.137c-4.172-1.604-10.075-8.506-5.774-15.518
		c2.243-3.661,6.499-4.622,6.499-4.622l0.056-3.32c-3.887-0.681-7.369-1.826-10.403-3.354c-3.638,1.977-7.144,5.387-8.508,11.295
		c-3.29,14.233,7.782,25.867,26.958,26.027s29.069-10.322,29.792-19.307C287.314,235.734,276.379,232.256,269.078,233.138z"/>
	<path id="XMLID_41_" fill="#DA4D4E" d="M295.459,126.807c3.273,2.606,6.229,5.95,8.1,10.105h48.528
		C352.087,136.913,326.238,130.386,295.459,126.807z"/>
	<path id="XMLID_42_" fill="#DA4D4E" d="M243.226,124.63c-41.669,1.197-87.859,12.283-87.859,12.283h114.8
		C265.273,132.541,256.812,129.597,243.226,124.63z"/>
</g>
</svg>
